<?xml version="1.0" encoding="UTF-8"?>
<svg width="700pt" height="700pt" version="1.1" viewBox="0 0 700 700" xmlns="http://www.w3.org/2000/svg">
 <path d="m473.79 223.22h93.109c13.512 0 25.801 5.5312 34.691 14.418 8.8906 8.8906 14.418 21.18 14.418 34.691v15.332c0 13.512-5.5312 25.801-14.418 34.691-8.8906 8.8906-21.18 14.418-34.691 14.418h-93.113l17.727 17.727c9.5234 9.5234 14.301 22.078 14.301 34.598-0.054688 12.527-4.8086 25.062-14.293 34.559l-11.066 11.07c-9.5391 9.5898-22.09 14.359-34.613 14.359-12.488 0-25.016-4.7773-34.547-14.301l-120.2-120.21c-9.5117-9.457-14.254-22.02-14.262-34.578-0.058594-12.52 4.7031-25.082 14.219-34.598l121.11-121.04c9.3789-8.9219 21.535-13.402 33.688-13.406 12.473-0.058594 24.996 4.7109 34.527 14.227 0.18359 0.058593 10.094 10.102 11.117 11.125 9.5508 9.4961 14.328 22.047 14.328 34.578 0 12.488-4.7773 25.023-14.301 34.551l-17.727 17.777zm-276.24-71.367v256.29h44.129c12.969 0 24.785 5.3164 33.348 13.875 8.6133 8.5586 13.938 20.391 13.938 33.402v19.004c0 13.012-5.3242 24.836-13.883 33.395-8.5586 8.5586-20.387 13.875-33.402 13.875h-110.41c-12.949 0-24.762-5.3164-33.344-13.875-8.8828-8.8828-13.93-20.82-13.93-33.395v-388.85c0-12.949 5.3164-24.762 13.875-33.344 8.8828-8.8828 20.82-13.93 33.395-13.93h110.42c12.965 0 24.777 5.3164 33.344 13.875 8.8945 8.8945 13.93 20.797 13.93 33.395v19.004c0 12.969-5.3164 24.777-13.875 33.344-8.5586 8.6133-20.391 13.938-33.395 13.938h-44.145zm-28.004 270.29v-284.29c0-7.7305 6.2695-14.004 14.004-14.004h58.145c5.2852 0 10.113-2.1758 13.605-5.668 3.5-3.4609 5.6602-8.2891 5.6602-13.605v-19.004c0-5.3164-2.1641-10.145-5.6367-13.633-3.4844-3.4727-8.3203-5.6367-13.633-5.6367h-110.42c-5.3242 0-10.152 2.1484-13.605 5.6094-3.6523 3.6523-5.6602 8.4922-5.6602 13.66v388.85c0 5.3242 2.1484 10.152 5.6094 13.605 3.6523 3.6523 8.4922 5.6602 13.66 5.6602h110.41c5.2969 0 10.125-2.1758 13.613-5.6602 3.4922-3.4922 5.668-8.3125 5.668-13.605v-19.004c0-5.293-2.1758-10.121-5.668-13.613-3.4609-3.5-8.293-5.6602-13.613-5.6602h-58.133c-7.7305 0-14.004-6.2695-14.004-14.004zm397.36-170.92h-126.9c-3.5781-0.011718-7.1641-1.375-9.8945-4.1094-5.4648-5.4648-5.4648-14.328 0-19.789l41.625-41.625c4.0547-4.0273 6.0859-9.4102 6.0859-14.816 0-5.3828-2.0312-10.762-6.0859-14.816l-11.066-11.07c-4.043-4.0742-9.4258-6.0977-14.816-6.0977-5.1133-0.058594-10.254 1.8008-14.254 5.5078l-120.73 120.76c-4.0547 4.0547-6.0781 9.4375-6.0781 14.824-0.058594 5.3438 1.9844 10.723 6.0664 14.801 0.078125 0.41016 114.25 114.27 120.18 120.2 4.0352 4.0625 9.4102 6.0898 14.816 6.0898 5.3828 0 10.762-2.0312 14.816-6.0859l11.07-11.027c4.0859-4.0938 6.1367-9.4961 6.1367-14.875-0.058594-5.3828-2.0898-10.754-6.1445-14.809l-41.305-41.305c-2.7266-2.5547-4.4258-6.1836-4.4258-10.211 0-7.7305 6.2695-14.004 14.004-14.004h126.91c5.793 0 11.078-2.3828 14.902-6.2031 3.8242-3.8242 6.2031-9.1094 6.2031-14.902v-15.332c0-5.793-2.3828-11.078-6.2031-14.902-3.8242-3.8242-9.1094-6.2031-14.902-6.2031z"/>
</svg>
